<svg width="274" height="56" viewBox="0 0 274 56" fill="none" xmlns="http://www.w3.org/2000/svg">
<rect x="0.5" y="0.5" width="273" height="55" stroke="#121212"/>
<path d="M101.486 34.1449C101.153 34.9135 100.759 35.621 100.303 36.2714C99.6809 37.1581 99.1717 37.7719 98.7792 38.1127C98.1709 38.6722 97.5191 38.9587 96.8211 38.975C96.32 38.975 95.7158 38.8324 95.0124 38.5432C94.3066 38.2553 93.6581 38.1127 93.0651 38.1127C92.4432 38.1127 91.7762 38.2553 91.0627 38.5432C90.3482 38.8324 89.7726 38.9832 89.3324 38.9981C88.6631 39.0266 87.996 38.732 87.3301 38.1127C86.905 37.742 86.3734 37.1065 85.7365 36.2062C85.0532 35.2448 84.4915 34.13 84.0514 32.8589C83.58 31.4861 83.3438 30.1567 83.3438 28.8696C83.3438 27.3953 83.6623 26.1238 84.3004 25.0582C84.8019 24.2023 85.469 23.5272 86.304 23.0315C87.139 22.5359 88.0412 22.2833 89.0128 22.2671C89.5444 22.2671 90.2416 22.4316 91.1079 22.7548C91.9718 23.079 92.5266 23.2435 92.7698 23.2435C92.9516 23.2435 93.5678 23.0512 94.6125 22.6679C95.6003 22.3124 96.4341 22.1652 97.1171 22.2231C98.968 22.3725 100.358 23.1021 101.283 24.4166C99.6279 25.4196 98.8091 26.8243 98.8254 28.6264C98.8403 30.0301 99.3496 31.1982 100.35 32.1257C100.804 32.5561 101.31 32.8888 101.874 33.1251C101.752 33.4795 101.623 33.819 101.486 34.1449ZM97.2407 17.4411C97.2407 18.5413 96.8388 19.5685 96.0376 20.5194C95.0707 21.6497 93.9013 22.3029 92.6331 22.1998C92.617 22.0678 92.6076 21.9289 92.6076 21.7829C92.6076 20.7267 93.0674 19.5964 93.8839 18.6722C94.2916 18.2042 94.81 17.8151 95.4387 17.5048C96.0661 17.199 96.6595 17.0299 97.2176 17.001C97.2339 17.1481 97.2407 17.2951 97.2407 17.4411V17.4411Z" fill="#121212"/>
<path d="M122.66 33.5H121.076L120.164 30.988H115.124L114.212 33.5H112.628L116.804 22.3H118.484L122.66 33.5ZM117.636 24.076L115.636 29.596H119.652L117.636 24.076ZM124.461 22.3H128.525C129.549 22.3 130.408 22.6467 131.101 23.34C131.795 24.0333 132.141 24.8867 132.141 25.9C132.141 26.9133 131.795 27.7667 131.101 28.46C130.408 29.1533 129.549 29.5 128.525 29.5H125.949V33.5H124.461V22.3ZM125.949 28.108H128.525C129.155 28.108 129.667 27.9 130.061 27.484C130.467 27.0467 130.669 26.5187 130.669 25.9C130.669 25.26 130.467 24.732 130.061 24.316C129.656 23.9 129.144 23.692 128.525 23.692H125.949V28.108ZM134.379 22.3H138.443C139.467 22.3 140.325 22.6467 141.019 23.34C141.712 24.0333 142.059 24.8867 142.059 25.9C142.059 26.9133 141.712 27.7667 141.019 28.46C140.325 29.1533 139.467 29.5 138.443 29.5H135.867V33.5H134.379V22.3ZM135.867 28.108H138.443C139.072 28.108 139.584 27.9 139.979 27.484C140.384 27.0467 140.587 26.5187 140.587 25.9C140.587 25.26 140.384 24.732 139.979 24.316C139.573 23.9 139.061 23.692 138.443 23.692H135.867V28.108ZM145.784 22.3V32.092H150.616V33.5H144.296V22.3H145.784ZM154.077 28.54V32.092H159.277V33.5H152.589V22.3H159.197V23.708H154.077V27.148H158.797V28.54H154.077ZM166.033 22.3H170.097C171.121 22.3 171.98 22.6467 172.673 23.34C173.366 24.0333 173.713 24.8867 173.713 25.9C173.713 26.9133 173.366 27.7667 172.673 28.46C171.98 29.1533 171.121 29.5 170.097 29.5H167.521V33.5H166.033V22.3ZM167.521 28.108H170.097C170.726 28.108 171.238 27.9 171.633 27.484C172.038 27.0467 172.241 26.5187 172.241 25.9C172.241 25.26 172.038 24.732 171.633 24.316C171.228 23.9 170.716 23.692 170.097 23.692H167.521V28.108ZM183.77 33.5H182.186L181.274 30.988H176.234L175.322 33.5H173.738L177.914 22.3H179.594L183.77 33.5ZM178.746 24.076L176.746 29.596H180.762L178.746 24.076ZM190.79 22.3H192.454L188.486 28.972V33.5H186.998V28.956L183.046 22.3H184.71L187.75 27.548L190.79 22.3Z" fill="#121212"/>
</svg>
