<svg width="25" height="24" viewBox="0 0 25 24" fill="none" xmlns="http://www.w3.org/2000/svg">
<path d="M21.4856 17.1449C21.1529 17.9135 20.7591 18.621 20.3028 19.2714C19.6809 20.1581 19.1717 20.7719 18.7792 21.1127C18.1709 21.6722 17.5191 21.9587 16.8211 21.975C16.32 21.975 15.7158 21.8324 15.0124 21.5432C14.3066 21.2553 13.6581 21.1127 13.0651 21.1127C12.4432 21.1127 11.7762 21.2553 11.0627 21.5432C10.3482 21.8324 9.77255 21.9832 9.33245 21.9981C8.66313 22.0266 7.99599 21.732 7.33006 21.1127C6.90503 20.742 6.37341 20.1065 5.73654 19.2062C5.05324 18.2448 4.49146 17.13 4.05136 15.8589C3.58003 14.4861 3.34375 13.1567 3.34375 11.8696C3.34375 10.3953 3.66232 9.12378 4.3004 8.05821C4.80188 7.20232 5.46903 6.52716 6.30402 6.03151C7.139 5.53587 8.0412 5.2833 9.0128 5.26714C9.54442 5.26714 10.2416 5.43158 11.1079 5.75477C11.9718 6.07904 12.5266 6.24349 12.7698 6.24349C12.9516 6.24349 13.5678 6.0512 14.6125 5.66786C15.6003 5.31236 16.4341 5.16516 17.1171 5.22314C18.968 5.37251 20.3585 6.10213 21.2832 7.4166C19.6279 8.41956 18.8091 9.82433 18.8254 11.6264C18.8403 13.0301 19.3496 14.1982 20.3503 15.1257C20.8039 15.5561 21.3104 15.8888 21.8739 16.1251C21.7517 16.4795 21.6227 16.819 21.4856 17.1449ZM17.2407 0.441082C17.2407 1.54128 16.8388 2.56854 16.0376 3.51936C15.0707 4.64969 13.9013 5.30285 12.6331 5.19979C12.617 5.0678 12.6076 4.92888 12.6076 4.7829C12.6076 3.72671 13.0674 2.59638 13.8839 1.67217C14.2916 1.20423 14.81 0.815149 15.4387 0.504768C16.0661 0.199018 16.6595 0.0299319 17.2176 0.000976562C17.2339 0.148056 17.2407 0.295146 17.2407 0.441068V0.441082Z" fill="#121212"/>
</svg>
