<svg width="274" height="56" viewBox="0 0 274 56" fill="none" xmlns="http://www.w3.org/2000/svg">
<rect x="0.5" y="0.5" width="273" height="55" stroke="#121212"/>
<path d="M91.4992 28.235C91.4992 27.5417 91.443 26.8446 91.3231 26.1626H81.7031V30.09H87.212C86.9834 31.3567 86.2489 32.4772 85.1733 33.1892V35.7375H88.4599C90.3899 33.9612 91.4992 31.3379 91.4992 28.235Z" fill="#4285F4"/>
<path d="M81.7038 38.1996C84.4545 38.1996 86.7743 37.2965 88.4644 35.7375L85.1778 33.1892C84.2634 33.8113 83.0829 34.1636 81.7076 34.1636C79.0468 34.1636 76.7908 32.3685 75.9814 29.9551H72.5898V32.5821C74.3212 36.0261 77.8476 38.1996 81.7038 38.1996Z" fill="#34A853"/>
<path d="M75.9766 29.9553C75.5494 28.6886 75.5494 27.317 75.9766 26.0504V23.4233H72.5888C71.1423 26.3052 71.1423 29.7005 72.5888 32.5823L75.9766 29.9553Z" fill="#FBBC04"/>
<path d="M81.7038 21.838C83.1579 21.8156 84.5632 22.3627 85.6163 23.367L88.5281 20.4552C86.6843 18.7238 84.2372 17.772 81.7038 17.802C77.8476 17.802 74.3212 19.9755 72.5898 23.4233L75.9776 26.0503C76.7833 23.6331 79.0431 21.838 81.7038 21.838Z" fill="#EA4335"/>
<path d="M107.9 27.948H113.5V28.62C113.5 30.0813 112.999 31.2973 111.996 32.268C110.993 33.228 109.665 33.708 108.012 33.708C106.305 33.708 104.892 33.148 103.772 32.028C102.663 30.8867 102.108 29.5107 102.108 27.9C102.108 26.2893 102.663 24.9187 103.772 23.788C104.892 22.6573 106.295 22.092 107.98 22.092C109.004 22.092 109.953 22.3427 110.828 22.844C111.713 23.3453 112.38 23.996 112.828 24.796L111.548 25.548C111.228 24.94 110.743 24.4547 110.092 24.092C109.441 23.7187 108.732 23.532 107.964 23.532C106.673 23.532 105.623 23.9533 104.812 24.796C103.991 25.6387 103.58 26.6733 103.58 27.9C103.58 29.1267 103.991 30.1613 104.812 31.004C105.644 31.836 106.716 32.252 108.028 32.252C109.127 32.252 110.023 31.9853 110.716 31.452C111.42 30.908 111.852 30.188 112.012 29.292H107.9V27.948ZM115.197 27.9C115.197 26.2787 115.757 24.908 116.877 23.788C117.997 22.6573 119.368 22.092 120.989 22.092C122.611 22.092 123.981 22.6573 125.101 23.788C126.232 24.908 126.797 26.2787 126.797 27.9C126.797 29.5107 126.232 30.8813 125.101 32.012C123.981 33.1427 122.611 33.708 120.989 33.708C119.368 33.708 117.997 33.1427 116.877 32.012C115.757 30.8707 115.197 29.5 115.197 27.9ZM125.309 27.9C125.309 26.6627 124.893 25.628 124.061 24.796C123.251 23.9533 122.227 23.532 120.989 23.532C119.763 23.532 118.733 23.9533 117.901 24.796C117.08 25.6387 116.669 26.6733 116.669 27.9C116.669 29.116 117.08 30.1507 117.901 31.004C118.733 31.836 119.763 32.252 120.989 32.252C122.227 32.252 123.251 31.836 124.061 31.004C124.893 30.1507 125.309 29.116 125.309 27.9ZM128.474 27.9C128.474 26.2787 129.034 24.908 130.154 23.788C131.274 22.6573 132.645 22.092 134.266 22.092C135.888 22.092 137.258 22.6573 138.378 23.788C139.509 24.908 140.074 26.2787 140.074 27.9C140.074 29.5107 139.509 30.8813 138.378 32.012C137.258 33.1427 135.888 33.708 134.266 33.708C132.645 33.708 131.274 33.1427 130.154 32.012C129.034 30.8707 128.474 29.5 128.474 27.9ZM138.586 27.9C138.586 26.6627 138.17 25.628 137.338 24.796C136.528 23.9533 135.504 23.532 134.266 23.532C133.04 23.532 132.01 23.9533 131.178 24.796C130.357 25.6387 129.946 26.6733 129.946 27.9C129.946 29.116 130.357 30.1507 131.178 31.004C132.01 31.836 133.04 32.252 134.266 32.252C135.504 32.252 136.528 31.836 137.338 31.004C138.17 30.1507 138.586 29.116 138.586 27.9ZM147.543 27.948H153.143V28.62C153.143 30.0813 152.642 31.2973 151.639 32.268C150.636 33.228 149.308 33.708 147.655 33.708C145.948 33.708 144.535 33.148 143.415 32.028C142.306 30.8867 141.751 29.5107 141.751 27.9C141.751 26.2893 142.306 24.9187 143.415 23.788C144.535 22.6573 145.938 22.092 147.623 22.092C148.647 22.092 149.596 22.3427 150.471 22.844C151.356 23.3453 152.023 23.996 152.471 24.796L151.191 25.548C150.871 24.94 150.386 24.4547 149.735 24.092C149.084 23.7187 148.375 23.532 147.607 23.532C146.316 23.532 145.266 23.9533 144.455 24.796C143.634 25.6387 143.223 26.6733 143.223 27.9C143.223 29.1267 143.634 30.1613 144.455 31.004C145.287 31.836 146.359 32.252 147.671 32.252C148.77 32.252 149.666 31.9853 150.359 31.452C151.063 30.908 151.495 30.188 151.655 29.292H147.543V27.948ZM156.92 22.3V32.092H161.752V33.5H155.432V22.3H156.92ZM165.213 28.54V32.092H170.413V33.5H163.725V22.3H170.333V23.708H165.213V27.148H169.933V28.54H165.213ZM177.169 22.3H181.233C182.257 22.3 183.116 22.6467 183.809 23.34C184.503 24.0333 184.849 24.8867 184.849 25.9C184.849 26.9133 184.503 27.7667 183.809 28.46C183.116 29.1533 182.257 29.5 181.233 29.5H178.657V33.5H177.169V22.3ZM178.657 28.108H181.233C181.863 28.108 182.375 27.9 182.769 27.484C183.175 27.0467 183.377 26.5187 183.377 25.9C183.377 25.26 183.175 24.732 182.769 24.316C182.364 23.9 181.852 23.692 181.233 23.692H178.657V28.108ZM194.906 33.5H193.322L192.41 30.988H187.37L186.458 33.5H184.874L189.05 22.3H190.73L194.906 33.5ZM189.882 24.076L187.882 29.596H191.898L189.882 24.076ZM201.926 22.3H203.59L199.622 28.972V33.5H198.134V28.956L194.182 22.3H195.846L198.886 27.548L201.926 22.3Z" fill="#121212"/>
</svg>
