<svg width="48" height="49" viewBox="0 0 48 49" fill="none" xmlns="http://www.w3.org/2000/svg">
<rect x="0.5" y="1" width="47" height="47" rx="23.5" stroke="#121212"/>
<path fill-rule="evenodd" clip-rule="evenodd" d="M18.3806 26.2696C18.4243 26.2844 18.4685 26.2948 18.5126 26.3012C18.5608 26.4144 18.623 26.5607 18.6955 26.7318C18.8726 27.1494 19.1112 27.7143 19.3575 28.3035C19.8597 29.5052 20.3663 30.7439 20.4782 31.0985C20.6167 31.5368 20.7631 31.8348 20.923 32.0383C21.0056 32.1435 21.1012 32.2353 21.213 32.3049C21.2693 32.3399 21.3288 32.3686 21.3909 32.39C21.3936 32.391 21.3964 32.3919 21.3991 32.3928C21.7191 32.5136 22.0109 32.4633 22.1935 32.4018C22.2913 32.3688 22.3704 32.3291 22.4264 32.2969C22.455 32.2804 22.4791 32.2651 22.4984 32.2521L22.5029 32.2491L25.3292 30.4866L28.5937 32.9894C28.6419 33.0263 28.6944 33.0573 28.75 33.0816C29.1422 33.2527 29.522 33.3124 29.8793 33.2636C30.2359 33.2149 30.5191 33.0651 30.7298 32.8964C30.9363 32.7313 31.0762 32.5463 31.1633 32.4089C31.2078 32.3387 31.2412 32.2766 31.2648 32.2291C31.2766 32.2052 31.2862 32.1846 31.2935 32.1681L31.3029 32.1463L31.3065 32.1377L31.308 32.1341L31.3087 32.1324L31.3093 32.1308C31.3264 32.0879 31.3396 32.0435 31.3486 31.9982L34.3288 16.9727C34.3383 16.9247 34.3431 16.8758 34.3431 16.8268C34.3431 16.3868 34.1773 15.9684 33.7875 15.7145C33.4543 15.4975 33.0832 15.4882 32.8486 15.506C32.5955 15.5252 32.3618 15.5877 32.205 15.6376C32.1234 15.6635 32.055 15.6886 32.0056 15.7077C31.9808 15.7173 31.9605 15.7256 31.9454 15.7319L31.934 15.7367L15.2203 22.2932L15.2181 22.294C15.2075 22.2979 15.1938 22.303 15.1775 22.3093C15.1452 22.3219 15.1018 22.3396 15.0511 22.3626C14.9524 22.4074 14.8138 22.4773 14.6716 22.5747C14.4444 22.7303 13.9219 23.1564 14.0099 23.8597C14.0801 24.4208 14.4644 24.7654 14.6986 24.9311C14.8272 25.0221 14.9494 25.0871 15.0384 25.1295C15.0796 25.1491 15.1653 25.1839 15.2025 25.1991L15.2119 25.2029L18.3806 26.2696ZM32.5189 17.1179L32.5166 17.1189C32.5083 17.1225 32.4999 17.126 32.4914 17.1293L15.7574 23.6938C15.7487 23.6972 15.7399 23.7005 15.731 23.7036L15.7217 23.7071C15.711 23.7113 15.693 23.7186 15.6704 23.7288C15.6575 23.7346 15.6441 23.741 15.6305 23.7478C15.6492 23.7584 15.6672 23.7675 15.6831 23.7751C15.6984 23.7824 15.7101 23.7874 15.7165 23.79L18.8591 24.848C18.9167 24.8674 18.9703 24.893 19.0195 24.924L29.3963 18.8495L29.406 18.8437C29.4136 18.8393 29.4235 18.8335 29.4354 18.8268C29.459 18.8135 29.4914 18.7957 29.53 18.776C29.6021 18.7394 29.7173 18.685 29.8471 18.6449C29.9375 18.6169 30.2039 18.5382 30.492 18.6306C30.6698 18.6877 30.8539 18.8103 30.9737 19.018C31.0332 19.1212 31.0649 19.2248 31.0802 19.3197C31.121 19.4692 31.1145 19.6168 31.0826 19.7442C31.0139 20.0187 30.821 20.2329 30.6455 20.3966C30.4952 20.5371 28.5498 22.4129 26.6306 24.2647C25.6736 25.1881 24.7263 26.1025 24.0182 26.7859L23.5532 27.2349L29.4251 31.7367C29.5598 31.7849 29.6394 31.7825 29.6762 31.7774C29.7201 31.7714 29.756 31.7545 29.7927 31.7252C29.8337 31.6924 29.8696 31.648 29.8965 31.6057L29.8976 31.604L32.788 17.031C32.7451 17.0413 32.7018 17.0536 32.66 17.0669C32.6126 17.082 32.5736 17.0963 32.5477 17.1064C32.5349 17.1113 32.5256 17.1151 32.5206 17.1172L32.5189 17.1179ZM24.0576 29.5118L22.8862 28.6136L22.6023 30.4193L24.0576 29.5118ZM21.8115 26.8314L22.9765 25.7067C23.6845 25.0232 24.6319 24.1088 25.5891 23.1852L26.5616 22.247L20.0415 26.0638L20.0765 26.1463C20.2542 26.5654 20.4939 27.1327 20.7415 27.7251C20.9266 28.168 21.1202 28.6344 21.2965 29.0662L21.5795 27.2658C21.6068 27.0922 21.6916 26.942 21.8115 26.8314Z" fill="#121212"/>
</svg>
