<svg width="48" height="49" viewBox="0 0 48 49" fill="none" xmlns="http://www.w3.org/2000/svg">
<rect x="0.5" y="1" width="47" height="47" rx="23.5" stroke="#121212"/>
<path fill-rule="evenodd" clip-rule="evenodd" d="M22.2377 16.0377C23.2223 15.0531 24.5576 14.5 25.95 14.5H28.65C29.0642 14.5 29.4 14.8358 29.4 15.25V18.85C29.4 19.2642 29.0642 19.6 28.65 19.6H25.95C25.9102 19.6 25.8721 19.6158 25.8439 19.6439C25.8158 19.6721 25.8 19.7102 25.8 19.75V21.7H28.65C28.881 21.7 29.099 21.8064 29.2412 21.9884C29.3833 22.1705 29.4336 22.4078 29.3776 22.6319L28.4776 26.2319C28.3941 26.5658 28.0942 26.8 27.75 26.8H25.8V33.25C25.8 33.6642 25.4642 34 25.05 34H21.45C21.0358 34 20.7 33.6642 20.7 33.25V26.8H18.75C18.3358 26.8 18 26.4642 18 26.05V22.45C18 22.0358 18.3358 21.7 18.75 21.7H20.7V19.75C20.7 18.3576 21.2531 17.0223 22.2377 16.0377ZM25.95 16C24.9554 16 24.0016 16.3951 23.2983 17.0983C22.5951 17.8016 22.2 18.7554 22.2 19.75V22.45C22.2 22.8642 21.8642 23.2 21.45 23.2H19.5V25.3H21.45C21.8642 25.3 22.2 25.6358 22.2 26.05V32.5H24.3V26.05C24.3 25.6358 24.6358 25.3 25.05 25.3H27.1644L27.6894 23.2H25.05C24.6358 23.2 24.3 22.8642 24.3 22.45V19.75C24.3 19.3124 24.4738 18.8927 24.7833 18.5833C25.0927 18.2738 25.5124 18.1 25.95 18.1H27.9V16H25.95Z" fill="#121212"/>
</svg>
