<svg width="48" height="49" viewBox="0 0 48 49" fill="none" xmlns="http://www.w3.org/2000/svg">
<rect x="0.5" y="1" width="47" height="47" rx="23.5" stroke="#121212"/>
<path d="M28.4421 19.9576C28.4421 19.4053 28.8898 18.9576 29.4421 18.9576C29.9944 18.9576 30.4421 19.4053 30.4421 19.9576C30.4421 20.5099 29.9944 20.9576 29.4421 20.9576C28.8898 20.9576 28.4421 20.5099 28.4421 19.9576Z" fill="#121212"/>
<path fill-rule="evenodd" clip-rule="evenodd" d="M24.4421 20.2076C21.8187 20.2076 19.6921 22.3342 19.6921 24.9576C19.6921 27.5809 21.8187 29.7076 24.4421 29.7076C27.0654 29.7076 29.1921 27.5809 29.1921 24.9576C29.1921 22.3342 27.0654 20.2076 24.4421 20.2076ZM21.1921 24.9576C21.1921 23.1626 22.6472 21.7076 24.4421 21.7076C26.237 21.7076 27.6921 23.1626 27.6921 24.9576C27.6921 26.7525 26.237 28.2076 24.4421 28.2076C22.6472 28.2076 21.1921 26.7525 21.1921 24.9576Z" fill="#121212"/>
<path fill-rule="evenodd" clip-rule="evenodd" d="M29.7003 15.7906C26.2338 15.4031 22.6504 15.4031 19.1838 15.7906C17.1718 16.0155 15.5475 17.6005 15.3109 19.623C14.8964 23.1673 14.8964 26.7478 15.3109 30.2921C15.5475 32.3147 17.1718 33.8997 19.1838 34.1245C22.6504 34.512 26.2338 34.512 29.7003 34.1245C31.7124 33.8997 33.3367 32.3147 33.5733 30.2921C33.9878 26.7478 33.9878 23.1673 33.5733 19.623C33.3367 17.6005 31.7124 16.0155 29.7003 15.7906ZM19.3505 17.2813C22.7063 16.9062 26.1779 16.9062 29.5337 17.2813C30.8638 17.43 31.9293 18.4796 32.0834 19.7972C32.4844 23.2258 32.4844 26.6894 32.0834 30.1179C31.9293 31.4356 30.8638 32.4852 29.5337 32.6338C26.1779 33.0089 22.7063 33.0089 19.3505 32.6338C18.0203 32.4852 16.9549 31.4356 16.8007 30.1179C16.3998 26.6894 16.3998 23.2258 16.8007 19.7972C16.9549 18.4796 18.0203 17.43 19.3505 17.2813Z" fill="#121212"/>
</svg>
