<svg width="48" height="49" viewBox="0 0 48 49" fill="none" xmlns="http://www.w3.org/2000/svg">
<rect x="0.5" y="1" width="47" height="47" rx="23.5" stroke="#121212"/>
<path fill-rule="evenodd" clip-rule="evenodd" d="M26.7715 15.5809C27.2799 15.4939 27.8492 15.4648 28.385 15.5554C29.3418 15.7173 30.2257 16.162 30.9244 16.8288C31.3811 16.8391 31.8299 16.7492 32.227 16.6209C32.5631 16.5123 32.847 16.3813 33.046 16.2776C33.1449 16.2261 33.2213 16.1821 33.271 16.1524C33.2958 16.1375 33.3138 16.1263 33.3245 16.1195L33.3341 16.1134C33.6309 15.9157 34.0261 15.9542 34.279 16.2057C34.5319 16.4573 34.5726 16.8522 34.3764 17.1501C34.1687 17.4654 33.8803 18.0275 33.5573 18.6572C33.5065 18.7562 33.4548 18.8569 33.4025 18.9586C33.2172 19.3186 33.0272 19.6824 32.8501 19.9945C32.7389 20.1905 32.62 20.3895 32.5001 20.5614V20.8352C32.5077 21.8408 32.3924 22.8412 32.1583 23.8144C32.011 24.4268 31.8167 25.0283 31.5765 25.6137C30.9541 27.1304 30.0357 28.5078 28.8749 29.6656C27.7142 30.8233 26.3344 31.7382 24.8162 32.3567C23.2992 32.9747 21.6745 33.2845 20.0367 33.2681C17.6623 33.2701 15.338 32.5861 13.3433 31.2982C13.0495 31.1085 12.9258 30.7409 13.0451 30.4121C13.1644 30.0834 13.4951 29.8808 13.8422 29.9238C14.1426 29.9609 14.445 29.9791 14.7476 29.9781C15.8351 29.975 16.9018 29.7348 17.8757 29.2821C17.5661 29.1412 17.2706 28.9675 16.9944 28.7627C16.1827 28.1608 15.5788 27.3208 15.2667 26.3597C15.1856 26.1099 15.2411 25.8359 15.4129 25.6374C15.416 25.6338 15.4191 25.6303 15.4222 25.6268C15.2387 25.4631 15.067 25.285 14.9089 25.0933C14.1975 24.2311 13.8059 23.1497 13.8001 22.032L13.8001 22.0281L13.8001 21.9781C13.8001 21.7122 13.9408 21.4662 14.17 21.3315C14.2281 21.2973 14.2897 21.2716 14.3531 21.2544C14.0147 20.5793 13.8388 19.8339 13.8401 19.0776C13.8397 18.2208 14.0635 17.3789 14.4892 16.6354C14.6121 16.4207 14.833 16.2805 15.0795 16.2605C15.326 16.2405 15.5666 16.3434 15.7224 16.5354C16.685 17.7215 17.8863 18.6917 19.2482 19.3832C19.9484 19.7386 20.6829 20.0163 21.4387 20.2128C21.8625 20.3229 22.2929 20.4075 22.7277 20.4659C22.7085 19.7427 22.8513 19.0198 23.1511 18.3519C23.5907 17.372 24.3432 16.5659 25.2904 16.0598C25.6916 15.8454 26.2241 15.6747 26.7715 15.5809ZM15.4934 23.1284C15.623 23.4933 15.8159 23.8357 16.0659 24.1388C16.5572 24.7343 17.2392 25.1419 17.9964 25.2925C18.3337 25.3596 18.5821 25.6475 18.5992 25.9909C18.6162 26.3344 18.3974 26.6455 18.0684 26.7456C17.7959 26.8285 17.5168 26.8863 17.2344 26.9184C17.421 27.1589 17.6405 27.3743 17.8879 27.5578C18.4491 27.9739 19.126 28.2048 19.8245 28.2182C20.1414 28.2243 20.4203 28.429 20.5211 28.7295C20.6219 29.03 20.523 29.3615 20.2739 29.5575C19.2247 30.383 18.0115 30.9587 16.7259 31.2526C17.7914 31.5938 18.9089 31.7695 20.0392 31.7681L20.0479 31.7681C21.4879 31.783 22.9165 31.5109 24.2502 30.9676C25.5839 30.4242 26.796 29.6206 27.8156 28.6036C28.8353 27.5865 29.642 26.3765 30.1888 25.0442C30.3998 24.53 30.5705 24.0015 30.6999 23.4636C30.9057 22.6079 31.007 21.7282 31.0001 20.8439L31.0001 20.8381V20.3081C31.0001 20.1262 31.0661 19.9506 31.186 19.8138C31.2553 19.7347 31.3764 19.5522 31.5455 19.2543C31.7061 18.9712 31.8839 18.6313 32.0688 18.2721C32.08 18.2504 32.0912 18.2285 32.1025 18.2066C31.6229 18.3107 31.0793 18.3653 30.5095 18.3037C30.329 18.2842 30.1618 18.1999 30.0387 18.0665C29.5358 17.5212 28.8662 17.1582 28.1348 17.0344C27.8102 16.9795 27.4179 16.9921 27.0248 17.0594C26.5977 17.1326 26.226 17.2606 25.9973 17.3828C25.343 17.7323 24.8233 18.2892 24.5196 18.966C24.2159 19.6428 24.1454 20.4012 24.3192 21.1224C24.3746 21.3523 24.3183 21.5948 24.1674 21.7769C24.0164 21.9589 23.7884 22.0591 23.5522 22.0471C22.7088 22.0045 21.8743 21.8758 21.0614 21.6645C20.2015 21.441 19.3658 21.1251 18.5692 20.7207C17.3964 20.1253 16.3284 19.3482 15.4035 18.4205C15.3613 18.6361 15.3399 18.8561 15.3401 19.0776L15.3401 19.0795C15.339 19.6302 15.4742 20.1726 15.7335 20.6585C15.9928 21.1443 16.3682 21.5585 16.8263 21.8642C17.1044 22.0497 17.2261 22.3968 17.1248 22.7153C17.0236 23.0338 16.7238 23.2469 16.3897 23.2378C16.0871 23.2296 15.787 23.1928 15.4934 23.1284Z" fill="#121212"/>
</svg>
