<svg width="48" height="49" viewBox="0 0 48 49" fill="none" xmlns="http://www.w3.org/2000/svg">
<rect x="0.5" y="1" width="47" height="47" rx="23.5" stroke="#121212"/>
<path fill-rule="evenodd" clip-rule="evenodd" d="M23.75 14.5C18.3652 14.5 14 18.8652 14 24.25C14 29.6348 18.3652 34 23.75 34C29.1348 34 33.5 29.6348 33.5 24.25C33.5 18.8652 29.1348 14.5 23.75 14.5ZM15.5 24.25C15.5 19.6937 19.1937 16 23.75 16C28.3063 16 32 19.6937 32 24.25C32 28.8063 28.3063 32.5 23.75 32.5C22.8927 32.5 22.066 32.3692 21.2886 32.1266C21.7112 31.463 22.0473 30.748 22.2887 29.9991L22.8053 28.0219C23.0187 28.3265 23.3048 28.5729 23.6377 28.7388C23.9705 28.9047 24.3395 28.9848 24.7112 28.9719C27.2465 28.9719 29.0278 26.6681 29.0278 23.8063C29.0278 21.0572 26.7834 19.0028 23.9037 19.0028C20.3175 19.0028 18.4115 21.4134 18.4115 24.0319C18.4115 25.255 19.0587 26.7691 20.0978 27.2559C20.2521 27.3272 20.3531 27.2559 20.3768 27.1431C20.4006 27.0304 20.5429 26.461 20.6083 26.1995C20.6185 26.1581 20.6186 26.1143 20.6082 26.0729C20.5979 26.0315 20.5776 25.9933 20.549 25.9616C20.1565 25.4085 19.9487 24.7457 19.9553 24.0675C19.9532 23.5807 20.05 23.0986 20.2396 22.6503C20.4293 22.202 20.708 21.7968 21.0588 21.4593C21.4096 21.1218 21.8253 20.859 22.2806 20.6868C22.7359 20.5146 23.2214 20.4366 23.7078 20.4575C24.1633 20.4309 24.6194 20.4995 25.0469 20.6589C25.4745 20.8184 25.8641 21.0652 26.1909 21.3836C26.5177 21.7021 26.7746 22.0852 26.9451 22.5084C27.1156 22.9317 27.196 23.3858 27.1812 23.8419C27.1812 26.0863 26.0412 27.6478 24.5687 27.6478C24.3785 27.6624 24.1875 27.631 24.012 27.5562C23.8365 27.4813 23.6817 27.3653 23.5605 27.2179C23.4393 27.0706 23.3555 26.8962 23.316 26.7095C23.2765 26.5229 23.2826 26.3294 23.3337 26.1456C23.4181 25.7954 23.5295 25.4347 23.638 25.0832C23.8349 24.4455 24.0225 23.8381 24.0225 23.3788C24.043 23.2296 24.0311 23.0777 23.9875 22.9335C23.9439 22.7894 23.8696 22.6564 23.7698 22.5436C23.67 22.4308 23.547 22.3409 23.4092 22.2801C23.2714 22.2193 23.1221 22.189 22.9715 22.1913C22.1403 22.1913 21.4693 23.0581 21.4693 24.21C21.4631 24.6171 21.5399 25.0211 21.695 25.3975L20.7153 29.5538C20.5953 30.3391 20.595 31.1382 20.7145 31.9236C20.0639 31.6661 19.4539 31.3282 18.8967 30.9222C17.9196 30.2084 17.1032 29.2848 16.5129 28.2093C16.2807 27.7862 16.0871 27.3462 15.933 26.8946C15.6522 26.0644 15.5 25.175 15.5 24.25Z" fill="#121212"/>
</svg>
