<svg width="19" height="20" viewBox="0 0 19 20" fill="none" xmlns="http://www.w3.org/2000/svg">
<path d="M5.71654 19.5C5.22752 19.5 4.81033 19.332 4.46497 18.996C4.11895 18.6593 3.94593 18.253 3.94593 17.7772C3.94593 17.3014 4.11895 16.8951 4.46497 16.5584C4.81033 16.2224 5.22752 16.0544 5.71654 16.0544C6.20557 16.0544 6.62276 16.2224 6.96811 16.5584C7.31414 16.8951 7.48715 17.3014 7.48715 17.7772C7.48715 18.253 7.31414 18.6593 6.96811 18.996C6.62276 19.332 6.20557 19.5 5.71654 19.5ZM15.5308 19.5C15.0418 19.5 14.6246 19.332 14.2792 18.996C13.9332 18.6593 13.7602 18.253 13.7602 17.7772C13.7602 17.3014 13.9332 16.8951 14.2792 16.5584C14.6246 16.2224 15.0418 16.0544 15.5308 16.0544C16.0198 16.0544 16.437 16.2224 16.7824 16.5584C17.1284 16.8951 17.3014 17.3014 17.3014 17.7772C17.3014 18.253 17.1284 18.6593 16.7824 18.996C16.437 19.332 16.0198 19.5 15.5308 19.5ZM4.57829 3.9456L7.13303 9.16321H14.0384C14.089 9.16321 14.1396 9.15074 14.1902 9.1258C14.2408 9.10152 14.2745 9.06477 14.2914 9.01554L17.0232 4.21632C17.0569 4.15069 17.0569 4.08933 17.0232 4.03223C16.9894 3.97447 16.9388 3.9456 16.8714 3.9456H4.57829ZM3.84475 2.46891H17.8832C18.3047 2.46891 18.6211 2.64119 18.8322 2.98575C19.0427 3.33031 19.0551 3.68307 18.8696 4.04404L15.6067 9.75389C15.4549 10.0328 15.2401 10.2501 14.9622 10.4056C14.6836 10.5618 14.3841 10.6399 14.0637 10.6399H6.67773L5.51419 12.7319C5.4636 12.8139 5.45955 12.8959 5.50205 12.978C5.54387 13.06 5.61536 13.101 5.71654 13.101H17.3014V14.5777H5.71654C5.04202 14.5777 4.53614 14.2949 4.19888 13.7291C3.86162 13.1627 3.85319 12.6006 4.17358 12.0427L5.61536 9.50777L1.92238 1.97668H0V0.5H2.88357L3.84475 2.46891ZM7.13303 9.16321H14.2155H7.13303Z" fill="#121212"/>
</svg>
